<svg xmlns="http://www.w3.org/2000/svg" width="24.625" height="20"><path d="M22.094 4.984c.016.219.016.438.016.656A14.261 14.261 0 017.75 20 14.262 14.262 0 010 17.734a10.441 10.441 0 001.219.062 10.107 10.107 0 006.266-2.156 5.056 5.056 0 01-4.719-3.5 6.365 6.365 0 00.953.078 5.338 5.338 0 001.328-.172A5.048 5.048 0 011 7.094v-.062a5.083 5.083 0 002.281.641A5.054 5.054 0 011.719.918a14.346 14.346 0 0010.406 5.281A5.7 5.7 0 0112 5.047a5.052 5.052 0 018.734-3.453 9.936 9.936 0 003.2-1.219 5.033 5.033 0 01-2.219 2.781 10.118 10.118 0 002.906-.781 10.849 10.849 0 01-2.527 2.609z"/></svg>