<svg xmlns="http://www.w3.org/2000/svg" width="80" height="60.587" viewBox="0 0 80 60.587"><path d="M133.536,59.458a5.1,5.1,0,1,1-5.1-5.069,5.084,5.084,0,0,1,5.1,5.069" transform="translate(-53.536 -24.337)"/><path d="M69.334,21.279l6.917-10.006V1.135H54.215L47.207,11.273H63.835l-8.56,12.383,5.1,8.779a10.252,10.252,0,1,1-5.162,8.889h-10.2a20.526,20.526,0,1,0,24.32-20.044" transform="translate(-19.689 -1.135)" fill="#fff"/><path d="M20.916,1.136A20.5,20.5,0,0,0,10.637,3.885V1.136H.416V41.325H10.637V21.509h.009A10.238,10.238,0,0,1,20.916,11.3h0l3.424-.03L31.349,1.136Z" transform="translate(-0.416 -1.135)" fill="#fff"/></svg>