<svg xmlns="http://www.w3.org/2000/svg" width="26.25" height="20"><path d="M22.256 1.688a.067.067 0 00-.034-.031A21.655 21.655 0 0016.879 0a.081.081 0 00-.086.041 15.067 15.067 0 00-.665 1.366 19.993 19.993 0 00-6 0A13.819 13.819 0 009.452.041.084.084 0 009.365 0a21.593 21.593 0 00-5.343 1.657.076.076 0 00-.035.03A22.138 22.138 0 00.109 16.622a.09.09 0 00.034.061A21.771 21.771 0 006.7 20a.085.085 0 00.092-.03 15.545 15.545 0 001.341-2.18.083.083 0 00-.045-.116 14.338 14.338 0 01-2.048-.976.084.084 0 01-.008-.14c.138-.1.275-.21.407-.319a.081.081 0 01.085-.011 15.529 15.529 0 0013.192 0 .081.081 0 01.086.01c.131.108.269.217.408.32a.084.084 0 01-.007.14 13.456 13.456 0 01-2.049.975.084.084 0 00-.045.117 17.457 17.457 0 001.34 2.179.083.083 0 00.092.031 21.7 21.7 0 006.559-3.316.084.084 0 00.034-.06 21.992 21.992 0 00-3.878-14.936zM8.772 13.641a2.662 2.662 0 010-5.289 2.662 2.662 0 010 5.289zm8.722 0a2.662 2.662 0 010-5.289 2.662 2.662 0 010 5.289z"/></svg>