<?xml version="1.0" encoding="UTF-8" standalone="no"?>
<svg
   id="r3-logo-white"
   width="80"
   height="60.587"
   viewBox="0 0 80 60.587"
   version="1.1"
   sodipodi:docname="r3-logo-black.svg"
   inkscape:version="1.1.1 (1:1.1+202109281949+c3084ef5ed)"
   xmlns:inkscape="http://www.inkscape.org/namespaces/inkscape"
   xmlns:sodipodi="http://sodipodi.sourceforge.net/DTD/sodipodi-0.dtd"
   xmlns="http://www.w3.org/2000/svg"
   xmlns:svg="http://www.w3.org/2000/svg">
  <defs
     id="defs8" />
  <sodipodi:namedview
     id="namedview6"
     pagecolor="#ffffff"
     bordercolor="#666666"
     borderopacity="1.0"
     inkscape:pageshadow="2"
     inkscape:pageopacity="0.0"
     inkscape:pagecheckerboard="0"
     showgrid="false"
     inkscape:zoom="14.359516"
     inkscape:cx="40.043133"
     inkscape:cy="30.293501"
     inkscape:window-width="2560"
     inkscape:window-height="1416"
     inkscape:window-x="1920"
     inkscape:window-y="0"
     inkscape:window-maximized="1"
     inkscape:current-layer="r3-logo-white" />
  <path
     id="Path_8141"
     data-name="Path 8141"
     d="M133.536,59.458a5.1,5.1,0,1,1-5.1-5.069,5.084,5.084,0,0,1,5.1,5.069"
     transform="translate(-53.536 -24.337)"
     style="fill:#e52328;fill-opacity:1" />
  <path
     id="Path_8142"
     data-name="Path 8142"
     d="M69.334,21.279l6.917-10.006V1.135H54.215L47.207,11.273H63.835l-8.56,12.383,5.1,8.779a10.252,10.252,0,1,1-5.162,8.889h-10.2a20.526,20.526,0,1,0,24.32-20.044"
     transform="translate(-19.689 -1.135)"
     fill="#fff"
     style="fill:#000000" />
  <path
     id="Path_8143"
     data-name="Path 8143"
     d="M20.916,1.136A20.5,20.5,0,0,0,10.637,3.885V1.136H.416V41.325H10.637V21.509h.009A10.238,10.238,0,0,1,20.916,11.3h0l3.424-.03L31.349,1.136Z"
     transform="translate(-0.416 -1.135)"
     fill="#fff"
     style="fill:#000000" />
</svg>
